<svg id="Layer_1" data-name="Layer 1" xmlns="http://www.w3.org/2000/svg" viewBox="0 0 1539.27 1006.04"><defs><style>.cls-1{fill:#4285f5;}.cls-2{fill:none;stroke:#000;stroke-width:40px;}.cls-3{fill:#231f20;}</style></defs><path class="cls-1" d="M1024.28,434.12v39.77H996.15c1.15,1.66,1.77,2.67,2.49,3.57,57.6,71.9,19.28,176.58-71.29,193.46-38.74,7.23-73.91-2.57-102.81-29.52-35.13-32.77-47.35-73.66-34.43-120,12.86-46.13,44.58-74.18,91.1-85,8.94-2.08,18.43-2.48,27.67-2.53,37.82-.24,75.63,0,113.45,0,.47,0,.94.09,1.95.2M825.87,553.48c0,43.52,35.81,79.08,79.63,79.1,44.1,0,80.12-35.63,80.06-79.26,0-44.06-35.79-78.85-81.14-79-42.78-.13-78.55,35.92-78.55,79.16" transform="translate(-760.45 -433.79)"/><path d="M760.45,947.87v40a116.21,116.21,0,0,0,42.13-7.57,119.73,119.73,0,0,0,76.95-112c-.22-52.16,0-104.32,0-156.48,0-.77-.11-1.55-.21-2.69h-39.6v39.43h-79.1v40.27h78.54c.12,2,.3,3.65.3,5.31,0,24.42.08,48.84,0,73.26-.14,41.58-29.24,74.58-70.36,79.88-2.76.36-5.58.36-8.6.54" transform="translate(-760.45 -433.79)"/><path d="M942.07,709.09h39.62v39.62h79.08v40.38H981.88v5.56q0,36.17,0,72.33c.07,41.66,28.16,74.18,69.35,80.25,3.08.45,6.23.49,9.88.76,0,12.61.08,25.16-.18,37.7,0,.81-2.65,2.28-4,2.23-26.51-.91-50.37-9.46-70.81-26.38-29.41-24.37-44.22-55.88-44.26-94.14q-.08-77.53,0-155c0-.93.13-1.86.24-3.26" transform="translate(-760.45 -433.79)"/><path class="cls-1" d="M2229.36,559.32h40.24c-2.9,38.2-19.07,69-50.21,90.63-40.42,28-83.8,30.87-127.23,7.8-38.75-20.59-58.95-54.34-63-98.35h40.55c2.75,24,13.52,43.61,33.32,57.81,15.28,11,32.45,15.6,51.19,14.74,33.15-1.53,70.23-27.39,75.12-72.63" transform="translate(-760.45 -433.79)"/><path d="M1999.06,947.87v40a116.25,116.25,0,0,0,42.13-7.57,119.73,119.73,0,0,0,76.94-112c-.21-52.16,0-104.32,0-156.48,0-.77-.12-1.55-.21-2.69h-39.61v39.43h-79.09v40.27h78.54c.11,2,.29,3.65.29,5.31,0,24.42.08,48.84,0,73.26-.14,41.57-29.23,74.58-70.35,79.88-2.77.35-5.59.36-8.6.54" transform="translate(-760.45 -433.79)"/><path d="M2180.68,709.09h39.61v39.62h79.08v40.38h-78.89v5.56q0,36.17,0,72.33c.06,41.66,28.16,74.18,69.35,80.25,3.08.45,6.23.49,9.87.76,0,12.61.08,25.16-.18,37.7,0,.81-2.65,2.28-4,2.23-26.52-.91-50.37-9.46-70.82-26.38-29.4-24.37-44.21-55.88-44.25-94.14q-.09-77.53,0-155c0-.93.14-1.86.25-3.26" transform="translate(-760.45 -433.79)"/><path class="cls-2" d="M1530.09,653.21a99.71,99.71,0,1,0-99.7-99.7A99.81,99.81,0,0,0,1530.09,653.21Z" transform="translate(-760.45 -433.79)"/><path class="cls-1" d="M1379.76,947.87v40a116.16,116.16,0,0,0,42.12-7.57,119.72,119.72,0,0,0,76.95-112c-.21-52.16,0-104.32,0-156.48,0-.77-.11-1.55-.2-2.69H1459v39.43h-79.09v40.27h78.54c.11,2,.29,3.65.29,5.31,0,24.42.08,48.84,0,73.26-.14,41.57-29.23,74.58-70.35,79.88-2.77.35-5.59.36-8.6.54" transform="translate(-760.45 -433.79)"/><path class="cls-1" d="M1561.38,709.09H1601v39.62h79.08v40.38h-78.89v5.56q0,36.17,0,72.33c.07,41.66,28.16,74.18,69.36,80.25,3.08.45,6.22.49,9.87.76,0,12.61.08,25.16-.18,37.7,0,.81-2.65,2.28-4,2.23-26.51-.91-50.36-9.46-70.81-26.38-29.41-24.37-44.21-55.88-44.25-94.14q-.09-77.53,0-155c0-.93.14-1.86.25-3.26" transform="translate(-760.45 -433.79)"/><path class="cls-3" d="M1085.92,1323.19h23.52v56c0,19.44-11.28,29.4-29,29.4-18.6,0-31.56-10.56-31.56-31.2h23.28c.12,7.32,3,10,7.32,10,4,0,6.48-2.28,6.48-8.16Z" transform="translate(-760.45 -433.79)"/><path class="cls-3" d="M1154.8,1408.63c-20,0-35.16-13.08-35.16-34.56s15.24-34.44,35.28-34.44,35.27,13.08,35.27,34.44S1174.84,1408.63,1154.8,1408.63Zm0-20.4c6,0,11.52-4.44,11.52-14.16s-5.4-14-11.4-14-11.28,4.44-11.28,14S1148.68,1388.23,1154.8,1388.23Z" transform="translate(-760.45 -433.79)"/><path class="cls-3" d="M1197.88,1322.23c0-6.84,5.4-12.24,13.8-12.24s13.67,5.4,13.67,12.24-5.39,12-13.67,12S1197.88,1329,1197.88,1322.23Zm1.92,18.24h23.51v67.32H1199.8Z" transform="translate(-760.45 -433.79)"/><path class="cls-3" d="M1282.59,1371.67c0-7.8-4.32-12.36-11-12.36-7,0-11.28,4.56-11.28,12.36v36.12h-23.51v-67.32h23.51v9.6c4-5.76,11-10.2,20.52-10.2,15.6,0,25.32,11,25.32,28.68v39.24h-23.52Z" transform="translate(-760.45 -433.79)"/><path class="cls-3" d="M1373.31,1408.63c-20,0-35.16-13.08-35.16-34.56s15.24-34.44,35.28-34.44,35.28,13.08,35.28,34.44S1393.35,1408.63,1373.31,1408.63Zm0-20.4c6,0,11.52-4.44,11.52-14.16s-5.4-14-11.4-14-11.28,4.44-11.28,14S1367.19,1388.23,1373.31,1388.23Z" transform="translate(-760.45 -433.79)"/><path class="cls-3" d="M1487.19,1407.79h-23.64v-9.6c-3.84,5.76-10.92,10.2-20.4,10.2-15.6,0-25.32-11-25.32-28.8v-39.12h23.4v36.12c0,7.8,4.44,12.36,11.16,12.36s11.16-4.56,11.16-12.36v-36.12h23.64Z" transform="translate(-760.45 -433.79)"/><path class="cls-3" d="M1524.15,1407.79h-23.52v-67.32h23.52v11.88c5-7.32,12.72-12.48,21.72-12.48V1365h-6.6c-9.72,0-15.12,3.12-15.12,13.44Z" transform="translate(-760.45 -433.79)"/><path class="cls-3" d="M1579.35,1360H1572v-19.56h7.32v-.6c0-18.6,12.12-28.2,34-26.64v20c-7.08-.72-10,1.2-10.32,7.2h10.56V1360H1603v47.76h-23.64Z" transform="translate(-760.45 -433.79)"/><path class="cls-3" d="M1646.79,1339.63c9.6,0,16.32,4.2,19.8,10.2v-9.36h23.51v67.32h-23.51v-9.36c-3.48,6-10.32,10.2-19.8,10.2-16,0-28.68-13.08-28.68-34.56S1630.83,1339.63,1646.79,1339.63Zm7.56,20.52c-6.72,0-12.24,4.8-12.24,13.92s5.52,14,12.24,14,12.24-4.92,12.24-14S1661,1360.15,1654.35,1360.15Z" transform="translate(-760.45 -433.79)"/><path class="cls-3" d="M1795.22,1371.67c0-7.32-4.44-11.4-11.16-11.4s-11.16,4.08-11.16,11.4v36.12h-23.52v-36.12c0-7.32-4.32-11.4-11-11.4-7,0-11.28,4.08-11.28,11.4v36.12h-23.51v-67.32h23.51v8.88c3.84-5.4,10.44-9.48,19.56-9.48,10.08,0,18,4.56,22.44,12.36a27,27,0,0,1,22.44-12.36c17,0,27.24,11,27.24,28.68v39.24h-23.52Z" transform="translate(-760.45 -433.79)"/><path class="cls-3" d="M1829.67,1322.23c0-6.84,5.39-12.24,13.79-12.24s13.68,5.4,13.68,12.24-5.4,12-13.68,12S1829.67,1329,1829.67,1322.23Zm1.91,18.24h23.52v67.32h-23.52Z" transform="translate(-760.45 -433.79)"/><path class="cls-3" d="M1868.54,1319h23.52v88.8h-23.52Z" transform="translate(-760.45 -433.79)"/><path class="cls-3" d="M1952.18,1340.47H1978l-42.72,99.36h-25.55l16.07-34.92-27.59-64.44h26.15l14.16,38.16Z" transform="translate(-760.45 -433.79)"/><path class="cls-3" d="M1995.5,1408.75c-8.4,0-13.79-5.28-13.79-12.12s5.39-12.24,13.79-12.24,13.68,5.4,13.68,12.24S2003.78,1408.75,1995.5,1408.75Z" transform="translate(-760.45 -433.79)"/></svg>