<svg id="Layer_1" data-name="Layer 1" xmlns="http://www.w3.org/2000/svg" viewBox="0 0 649.39 143.87"><defs><style>.cls-1{fill:#4285f5;}.cls-2{fill:#231f20;}</style></defs><path class="cls-1" d="M141.26,228.16v9.94h-7c.28.42.44.67.62.9A29.82,29.82,0,0,1,117,287.36,28.45,28.45,0,0,1,91.33,280c-8.79-8.19-11.84-18.41-8.61-30s11.14-18.54,22.77-21.25a31.39,31.39,0,0,1,6.92-.63c9.45-.06,18.91,0,28.36,0a4.66,4.66,0,0,1,.49,0M91.66,258a20,20,0,0,0,39.92,0c0-11-9-19.71-20.28-19.75A19.87,19.87,0,0,0,91.66,258" transform="translate(-75.3 -228.08)"/><path d="M75.3,356.6v10a29,29,0,0,0,10.54-1.89,29.94,29.94,0,0,0,19.23-28c0-13,0-26.08,0-39.12,0-.19,0-.39,0-.67h-9.9v9.86H75.33v10.06H95c0,.5.07.92.07,1.33q0,9.15,0,18.32a19.8,19.8,0,0,1-17.59,20c-.69.09-1.39.09-2.15.14" transform="translate(-75.3 -228.08)"/><path d="M120.71,296.9h9.9v9.91h19.77V316.9H130.66v1.39q0,9,0,18.09A19.79,19.79,0,0,0,148,356.44c.77.11,1.56.12,2.47.19,0,3.15,0,6.29-.05,9.42,0,.21-.66.57-1,.56A28.62,28.62,0,0,1,131.71,360a29.3,29.3,0,0,1-11.06-23.54q0-19.38,0-38.76c0-.23,0-.47.06-.82" transform="translate(-75.3 -228.08)"/><path class="cls-1" d="M442.53,259.46h10.06c-.73,9.55-4.77,17.26-12.55,22.66-10.11,7-21,7.72-31.81,1.95-9.69-5.15-14.74-13.59-15.74-24.59h10.13a20.06,20.06,0,0,0,21.13,18.14,20.14,20.14,0,0,0,18.78-18.16" transform="translate(-75.3 -228.08)"/><path d="M385,356.6v10a28.93,28.93,0,0,0,10.54-1.89,29.94,29.94,0,0,0,19.23-28c-.05-13,0-26.08,0-39.12,0-.19,0-.39,0-.67h-9.9v9.86H385v10.06h19.64c0,.5.07.92.07,1.33q0,9.15,0,18.32a19.8,19.8,0,0,1-17.59,20c-.69.09-1.39.09-2.15.14" transform="translate(-75.3 -228.08)"/><path d="M430.36,296.9h9.9v9.91H460V316.9H440.31v1.39q0,9,0,18.09a19.79,19.79,0,0,0,17.34,20.06c.77.11,1.56.12,2.47.19,0,3.15,0,6.29-.05,9.42,0,.21-.66.57-1,.56A28.62,28.62,0,0,1,441.36,360a29.3,29.3,0,0,1-11.06-23.54q0-19.38,0-38.76c0-.23,0-.47.06-.82" transform="translate(-75.3 -228.08)"/><path d="M267.71,287.93A29.93,29.93,0,1,1,297.64,258,30,30,0,0,1,267.71,287.93Zm0-49.85A19.93,19.93,0,1,0,287.64,258,19.95,19.95,0,0,0,267.71,238.08Z" transform="translate(-75.3 -228.08)"/><path class="cls-1" d="M230.13,356.6v10a28.88,28.88,0,0,0,10.53-1.89,29.94,29.94,0,0,0,19.24-28c-.06-13,0-26.08,0-39.12,0-.19,0-.39-.06-.67h-9.9v9.86H230.16v10.06h19.63c0,.5.08.92.08,1.33,0,6.1,0,12.21,0,18.32a19.81,19.81,0,0,1-17.59,20c-.69.09-1.4.09-2.15.14" transform="translate(-75.3 -228.08)"/><path class="cls-1" d="M275.53,296.9h9.91v9.91h19.77V316.9H285.48v1.39q0,9,0,18.09a19.78,19.78,0,0,0,17.33,20.06c.77.11,1.56.12,2.47.19,0,3.15,0,6.29,0,9.42,0,.21-.67.57-1,.56a28.59,28.59,0,0,1-17.7-6.59,29.3,29.3,0,0,1-11.07-23.54q0-19.38,0-38.76c0-.23,0-.47.06-.82" transform="translate(-75.3 -228.08)"/><path class="cls-2" d="M570.82,352.51h3.92v9.34c0,3.24-1.88,4.9-4.84,4.9s-5.26-1.76-5.26-5.2h3.88c0,1.22.5,1.66,1.22,1.66s1.08-.38,1.08-1.36Z" transform="translate(-75.3 -228.08)"/><path class="cls-2" d="M582.3,366.75a5.75,5.75,0,1,1,5.9-5.76A5.52,5.52,0,0,1,582.3,366.75Zm0-3.4c1,0,1.92-.74,1.92-2.36s-.9-2.34-1.9-2.34-1.88.74-1.88,2.34S581.28,363.35,582.3,363.35Z" transform="translate(-75.3 -228.08)"/><path class="cls-2" d="M589.48,352.35a2.31,2.31,0,0,1,4.58,0,2.31,2.31,0,0,1-4.58,0Zm.32,3h3.92v11.22H589.8Z" transform="translate(-75.3 -228.08)"/><path class="cls-2" d="M603.6,360.59a1.87,1.87,0,1,0-3.72,0v6H596V355.39h3.92V357a4,4,0,0,1,3.42-1.7c2.6,0,4.22,1.84,4.22,4.78v6.54H603.6Z" transform="translate(-75.3 -228.08)"/><path class="cls-2" d="M618.72,366.75a5.75,5.75,0,1,1,5.9-5.76A5.52,5.52,0,0,1,618.72,366.75Zm0-3.4c1,0,1.92-.74,1.92-2.36s-.9-2.34-1.9-2.34-1.88.74-1.88,2.34S617.7,363.35,618.72,363.35Z" transform="translate(-75.3 -228.08)"/><path class="cls-2" d="M637.7,366.61h-3.94V365a4,4,0,0,1-3.4,1.7c-2.6,0-4.22-1.84-4.22-4.8v-6.52H630v6a1.87,1.87,0,1,0,3.72,0v-6h3.94Z" transform="translate(-75.3 -228.08)"/><path class="cls-2" d="M643.86,366.61h-3.92V355.39h3.92v2a4.45,4.45,0,0,1,3.62-2.08v4.18h-1.1c-1.62,0-2.52.52-2.52,2.24Z" transform="translate(-75.3 -228.08)"/><path class="cls-2" d="M653.06,358.65h-1.22v-3.26h1.22v-.1c0-3.1,2-4.7,5.66-4.44v3.34c-1.18-.12-1.66.2-1.72,1.2h1.76v3.26H657v8h-3.94Z" transform="translate(-75.3 -228.08)"/><path class="cls-2" d="M664.3,355.25a3.62,3.62,0,0,1,3.3,1.7v-1.56h3.92v11.22H667.6v-1.56a3.64,3.64,0,0,1-3.3,1.7c-2.66,0-4.78-2.18-4.78-5.76S661.64,355.25,664.3,355.25Zm1.26,3.42a2.06,2.06,0,0,0-2,2.32,2.06,2.06,0,1,0,2-2.32Z" transform="translate(-75.3 -228.08)"/><path class="cls-2" d="M689,360.59a1.86,1.86,0,1,0-3.72,0v6H681.4v-6a1.86,1.86,0,1,0-3.72,0v6h-3.92V355.39h3.92v1.48a3.87,3.87,0,0,1,3.26-1.58,4.11,4.11,0,0,1,3.74,2.06,4.5,4.5,0,0,1,3.74-2.06c2.84,0,4.54,1.84,4.54,4.78v6.54H689Z" transform="translate(-75.3 -228.08)"/><path class="cls-2" d="M694.78,352.35a2.31,2.31,0,0,1,4.58,0,2.31,2.31,0,0,1-4.58,0Zm.32,3H699v11.22H695.1Z" transform="translate(-75.3 -228.08)"/><path class="cls-2" d="M701.26,351.81h3.92v14.8h-3.92Z" transform="translate(-75.3 -228.08)"/><path class="cls-2" d="M715.2,355.39h4.3L712.38,372h-4.26l2.68-5.82-4.6-10.74h4.36l2.36,6.36Z" transform="translate(-75.3 -228.08)"/><path class="cls-2" d="M722.42,366.77a2,2,0,1,1,2.28-2A2.08,2.08,0,0,1,722.42,366.77Z" transform="translate(-75.3 -228.08)"/></svg>