<svg id="Layer_1" data-name="Layer 1" xmlns="http://www.w3.org/2000/svg" xmlns:xlink="http://www.w3.org/1999/xlink" viewBox="0 0 1264.38 331.32"><defs><style>.cls-1{fill:none;}.cls-2{clip-path:url(#clip-path);}.cls-3{fill:#4285f5;}</style><clipPath id="clip-path" transform="translate(-116.11 -135.69)"><rect class="cls-1" x="116.11" y="135.69" width="1264.38" height="331.32"/></clipPath></defs><g class="cls-2"><path d="M370.7,244.14a81.25,81.25,0,1,0-27.05,60.53v20.72H370.7Zm-81.25,54.19a54.2,54.2,0,1,1,54.19-54.19,54.25,54.25,0,0,1-54.19,54.19" transform="translate(-116.11 -135.69)"/><path d="M566.6,162.88a81.25,81.25,0,1,0,60.54,27.06h20.71V162.89Zm54.2,81.26a54.2,54.2,0,1,1-54.2-54.2,54.25,54.25,0,0,1,54.2,54.2" transform="translate(-116.11 -135.69)"/><path class="cls-3" d="M1270.83,244.14a81.25,81.25,0,1,0-27,60.53v20.72h27.06Zm-81.25,54.19a54.2,54.2,0,1,1,54.2-54.19,54.25,54.25,0,0,1-54.2,54.19" transform="translate(-116.11 -135.69)"/><path d="M485.54,325.38a81.25,81.25,0,0,0,162.12,0H620.51a54.2,54.2,0,0,1-107.82,0Z" transform="translate(-116.11 -135.69)"/><path d="M804.35,231.36a54.21,54.21,0,0,0-105.36,0Zm-105,27.05a54.22,54.22,0,0,0,98.4,14.24l22.09,15.66a81.21,81.21,0,1,1,11.79-29.9H699.38" transform="translate(-116.11 -135.69)"/><path class="cls-3" d="M1097,200a81.26,81.26,0,1,0,0,88.32l-22.09-15.66a54.23,54.23,0,1,1,0-57Z" transform="translate(-116.11 -135.69)"/></g><rect class="cls-3" x="1176.79" width="27.06" height="189.7"/><rect class="cls-3" x="1226.41" width="27.06" height="189.7"/><g class="cls-2"><path d="M393.27,260v65.39h27.05V244.14a54.26,54.26,0,0,1,54.2-54.2V162.89a81.24,81.24,0,0,0-81.25,81.25Z" transform="translate(-116.11 -135.69)"/><path d="M156.74,189.94h40.63V162.89h-54.2v-27.2H116.11V244.14a81.26,81.26,0,0,0,81.26,81.25V298.33a54.25,54.25,0,0,1-54.2-54.19v-54.2Z" transform="translate(-116.11 -135.69)"/><path d="M895.89,189.94h40.62V162.89H882.32v-27.2H855.26V244.14a81.25,81.25,0,0,0,81.25,81.25V298.33a54.26,54.26,0,0,1-54.2-54.19v-54.2Z" transform="translate(-116.11 -135.69)"/><path d="M963,450.61c-9.15,0-15.16-5.23-15.42-12.22h4.83c.4,3.79,3.21,8.36,10.59,8.36,6.34,0,10.06-3.72,10.06-8.43,0-13.46-25.09-5-25.09-22.15,0-7.06,5.82-12.22,14.64-12.22s13.92,4.84,14.7,11.11h-5c-.52-3.2-3.59-7.12-9.93-7.19-5.36-.06-9.8,2.88-9.8,8.17,0,13.2,25.09,5.1,25.09,22.08,0,6.21-5,12.49-14.7,12.49" transform="translate(-116.11 -135.69)"/><path d="M986.52,414.47h4.57v35.68h-4.57Zm-1-10.13a3.34,3.34,0,0,1,6.67,0,3.34,3.34,0,1,1-6.67,0" transform="translate(-116.11 -135.69)"/><path d="M1053.63,429.76c0-7.91-4.12-12-10.46-12s-11,4.32-11,13v19.34h-4.51V429.76c0-7.91-4.18-12-10.52-12-6.54,0-11.05,4.32-11.05,13v19.34h-4.57V414.47h4.57v6.14c2.29-4.51,6.8-6.79,11.83-6.79,6,0,11.05,2.81,13.2,8.75,2-5.81,7.19-8.75,12.87-8.75,7.91,0,14.18,5,14.18,15.42v20.91h-4.5Z" transform="translate(-116.11 -135.69)"/><path d="M1086,417.93c-7.25,0-13.26,5.49-13.26,14.38s6,14.38,13.26,14.38c7.52,0,13.27-5.43,13.27-14.45s-5.75-14.31-13.27-14.31m.92-4c9.73,0,17,7.12,17,18.29s-7.25,18.43-17,18.43c-7.13,0-12.09-3.92-14.18-8.36V467h-4.51V414.47h4.51v7.84c2.09-4.51,7-8.36,14.18-8.36" transform="translate(-116.11 -135.69)"/></g><rect x="996.26" y="266.11" width="4.57" height="48.35"/><polygon points="1035.93 278.78 1024.16 309.23 1012.01 278.78 1006.98 278.78 1021.62 314.26 1014.69 331.25 1019.46 331.25 1040.63 278.78 1035.93 278.78"/><g class="cls-2"><path d="M1198.63,417.93c-7.25,0-13.26,5.49-13.26,14.38s6,14.38,13.26,14.38c7.52,0,13.27-5.43,13.27-14.45s-5.75-14.31-13.27-14.31m.92-4c9.8,0,17,7.12,17,18.29s-7.25,18.43-17,18.43c-7.12,0-12-3.72-14.18-8.36v7.84h-4.51V401.79h4.51v20.59c2.22-4.71,7.19-8.43,14.18-8.43" transform="translate(-116.11 -135.69)"/><path d="M1227.52,430.35h25.09c.2-8.3-5.81-12.48-12.41-12.48s-12.16,4.18-12.68,12.48m12.87,20.32c-10.13,0-17.51-7.06-17.51-18.36s7.25-18.36,17.51-18.36c10.46,0,16.86,7.45,16.86,16.53a31.34,31.34,0,0,1-.13,3.59h-29.6c.39,8.37,6.21,12.75,12.87,12.75,6.08,0,10.2-3.21,11.5-8h4.84c-1.63,6.73-7.39,11.83-16.34,11.83" transform="translate(-116.11 -135.69)"/><path d="M1266.92,418.33h-5v-3.86h5v-9h4.64v9h9.8v3.86h-9.8v22.15c0,4.38,1.51,5.75,5.62,5.75h4.18v3.92h-4.9c-6.2,0-9.54-2.55-9.54-9.67Z" transform="translate(-116.11 -135.69)"/><path d="M1290.19,418.33h-5v-3.86h5v-9h4.63v9h9.81v3.86h-9.81v22.15c0,4.38,1.51,5.75,5.62,5.75h4.19v3.92h-4.9c-6.21,0-9.54-2.55-9.54-9.67Z" transform="translate(-116.11 -135.69)"/><path d="M1314.69,430.35h25.09c.2-8.3-5.81-12.48-12.41-12.48s-12.16,4.18-12.68,12.48m12.87,20.32c-10.12,0-17.51-7.06-17.51-18.36s7.26-18.36,17.51-18.36c10.46,0,16.86,7.45,16.86,16.53a31.34,31.34,0,0,1-.13,3.59h-29.6c.39,8.37,6.21,12.75,12.87,12.75,6.08,0,10.2-3.21,11.51-8h4.83c-1.63,6.73-7.38,11.83-16.34,11.83" transform="translate(-116.11 -135.69)"/><path d="M1357.36,450.15h-4.57V414.47h4.57v6.34c2-4.38,6.08-7,12.22-7v4.77h-1.24c-5.95,0-11,2.68-11,11.63Z" transform="translate(-116.11 -135.69)"/><path d="M1377.23,450.48a3.33,3.33,0,0,1-3.33-3.4,3.3,3.3,0,1,1,6.6,0,3.31,3.31,0,0,1-3.27,3.4" transform="translate(-116.11 -135.69)"/></g></svg>