<svg id="Layer_1" data-name="Layer 1" xmlns="http://www.w3.org/2000/svg" xmlns:xlink="http://www.w3.org/1999/xlink" viewBox="0 0 440.77 411.28"><defs><style>.cls-1{fill:none;}.cls-2{clip-path:url(#clip-path);}.cls-3{clip-path:url(#clip-path-2);}.cls-4{fill:#4285f5;}.cls-5{clip-path:url(#clip-path-3);}.cls-6{fill:#fff;}</style><clipPath id="clip-path" transform="translate(-101.96 -33.15)"><rect class="cls-1" x="91.73" y="32.63" width="245.1" height="205.88"/></clipPath><clipPath id="clip-path-2" transform="translate(-101.96 -33.15)"><rect class="cls-1" x="91.73" y="32.63" width="245.1" height="392.63"/></clipPath><clipPath id="clip-path-3" transform="translate(-101.96 -33.15)"><rect class="cls-1" x="212.97" y="265.36" width="123.86" height="115.52"/></clipPath></defs><g class="cls-2"><path d="M337.09,45c107,0,193.76,86.75,193.76,193.76S444.1,432.56,337.09,432.56,143.32,345.8,143.32,238.79,230.08,45,337.09,45m0-11.88a205.7,205.7,0,0,0-80,395.12A205.69,205.69,0,0,0,417.14,49.32a204.33,204.33,0,0,0-80.05-16.17" transform="translate(-101.96 -33.15)"/></g><g class="cls-3"><path class="cls-4" d="M337.09,52.39c102.94,0,186.4,83.46,186.4,186.4S440,425.19,337.09,425.19s-186.4-83.45-186.4-186.4,83.45-186.4,186.4-186.4" transform="translate(-101.96 -33.15)"/></g><g class="cls-5"><path class="cls-6" d="M337.09,177a79.81,79.81,0,1,1-79.81,79.81A79.89,79.89,0,0,1,337.09,177m0-44.31A124.12,124.12,0,1,0,461.21,256.76,124.12,124.12,0,0,0,337.09,132.64" transform="translate(-101.96 -33.15)"/></g><path d="M138.66,189.71C114.3,193.59,101.42,214.63,102,239v22.15c0,27.68,16.76,50.38,44.44,50.38H147c5.53,45.95,68.64,64.77,98,71.41a10.89,10.89,0,0,0,10.52,10.52h41A10.89,10.89,0,0,0,307,382.92v-6.64a10.89,10.89,0,0,0-10.52-10.52h-41a10.79,10.79,0,0,0-10.52,10c-27.68-6.09-84.71-24.36-90.24-63.67h9.41a7.57,7.57,0,0,0,7.75-7.75V196.91a7.57,7.57,0,0,0-7.75-7.75h-8.86Z" transform="translate(-101.96 -33.15)"/></svg>