<svg xmlns="http://www.w3.org/2000/svg" xmlns:xlink="http://www.w3.org/1999/xlink" viewBox="0 0 82.88 87.25"><defs><style>.cls-1{fill:none;}.cls-2{clip-path:url(#clip-path);}.cls-3{fill:#fff;}</style><clipPath id="clip-path" transform="translate(-328.43 -174.85)"><rect class="cls-1" x="328.43" y="174.85" width="82.88" height="87.25"/></clipPath></defs><g id="Layer_3" data-name="Layer 3"><g class="cls-2"><path class="cls-3" d="M329.39,219.69q9.39,16,19.55,31.51,2.91,4.43,5.87,8.82a5.17,5.17,0,0,0,8.82-.89,292.46,292.46,0,0,1,16.21-32.95q2.61-4.55,5.38-9l-.7,1.13a292.42,292.42,0,0,1,19.57-27.74c2-2.5,4-5,6.08-7.39a5.17,5.17,0,0,0-.72-7.21,5.23,5.23,0,0,0-7.21.72,291.39,291.39,0,0,0-21.32,28.37,302.45,302.45,0,0,0-18.29,31.59q-4.49,9-8.34,18.25l8.82-.89q-10.38-15.37-20-31.23-2.75-4.54-5.43-9.11a5.14,5.14,0,0,0-3.35-2,5.12,5.12,0,0,0-5.86,4.25,5.81,5.81,0,0,0,.92,3.82" transform="translate(-328.43 -174.85)"/></g></g></svg>